<svg width="638" height="160" viewBox="0 0 638 160" fill="none" xmlns="http://www.w3.org/2000/svg">
<path d="M89.718 158L62.718 119H61.118H32.918V158H0.51797V18H61.118C73.518 18 84.2513 20.0667 93.318 24.2C102.518 28.3333 109.585 34.2 114.518 41.8C119.451 49.4 121.918 58.4 121.918 68.8C121.918 79.2 119.385 88.2 114.318 95.8C109.385 103.267 102.318 109 93.118 113L124.518 158H89.718ZM89.118 68.8C89.118 60.9333 86.5846 54.9333 81.518 50.8C76.4513 46.5333 69.0513 44.4 59.318 44.4H32.918V93.2H59.318C69.0513 93.2 76.4513 91.0667 81.518 86.8C86.5846 82.5333 89.118 76.5333 89.118 68.8Z" fill="#F8DB45"/>
<path d="M199.588 134.6C205.188 134.6 210.122 133.8 214.388 132.2C218.788 130.467 222.855 127.8 226.588 124.2L243.188 142.2C233.055 153.8 218.255 159.6 198.788 159.6C186.655 159.6 175.922 157.267 166.588 152.6C157.255 147.8 150.055 141.2 144.988 132.8C139.922 124.4 137.388 114.867 137.388 104.2C137.388 93.6667 139.855 84.2 144.788 75.8C149.855 67.2667 156.722 60.6667 165.388 56C174.188 51.2 184.055 48.8 194.988 48.8C205.255 48.8 214.588 51 222.988 55.4C231.388 59.6667 238.055 65.9333 242.988 74.2C248.055 82.3333 250.588 92 250.588 103.2L170.988 118.6C173.255 123.933 176.788 127.933 181.588 130.6C186.522 133.267 192.522 134.6 199.588 134.6ZM194.988 72.4C187.122 72.4 180.722 74.9333 175.788 80C170.855 85.0667 168.255 92.0667 167.988 101L220.388 90.8C218.922 85.2 215.922 80.7333 211.388 77.4C206.855 74.0667 201.388 72.4 194.988 72.4ZM376.407 50.4L331.007 158H298.807L253.607 50.4H285.807L315.607 123.6L346.407 50.4H376.407ZM389.138 50.4H420.338V158H389.138V50.4ZM404.738 35.4C399.005 35.4 394.338 33.7333 390.738 30.4C387.138 27.0667 385.338 22.9333 385.338 18C385.338 13.0667 387.138 8.93333 390.738 5.6C394.338 2.26666 399.005 0.599988 404.738 0.599988C410.472 0.599988 415.138 2.19999 418.738 5.4C422.338 8.6 424.138 12.6 424.138 17.4C424.138 22.6 422.338 26.9333 418.738 30.4C415.138 33.7333 410.472 35.4 404.738 35.4ZM514.095 152.8C511.028 155.067 507.228 156.8 502.695 158C498.295 159.067 493.695 159.6 488.895 159.6C475.961 159.6 466.028 156.333 459.095 149.8C452.161 143.267 448.695 133.667 448.695 121V26.6H479.895V52.8H506.495V76.8H479.895V120.6C479.895 125.133 481.028 128.667 483.295 131.2C485.561 133.6 488.828 134.8 493.095 134.8C497.895 134.8 502.161 133.467 505.895 130.8L514.095 152.8ZM637.596 50.4V158H607.796V145.6C600.063 154.933 588.863 159.6 574.196 159.6C564.063 159.6 554.863 157.333 546.596 152.8C538.463 148.267 532.063 141.8 527.396 133.4C522.729 125 520.396 115.267 520.396 104.2C520.396 93.1333 522.729 83.4 527.396 75C532.063 66.6 538.463 60.1333 546.596 55.6C554.863 51.0667 564.063 48.8 574.196 48.8C587.929 48.8 598.663 53.1333 606.396 61.8V50.4H637.596ZM579.596 134C587.463 134 593.996 131.333 599.196 126C604.396 120.533 606.996 113.267 606.996 104.2C606.996 95.1333 604.396 87.9333 599.196 82.6C593.996 77.1333 587.463 74.4 579.596 74.4C571.596 74.4 564.996 77.1333 559.796 82.6C554.596 87.9333 551.996 95.1333 551.996 104.2C551.996 113.267 554.596 120.533 559.796 126C564.996 131.333 571.596 134 579.596 134Z" fill="#F5F2F0"/>
</svg>
